<svg width="80" height="80" viewBox="0 0 80 80" fill="none" xmlns="http://www.w3.org/2000/svg">
<g id="Icon">
<g id="Group">
<path id="Vector" d="M20.7591 6.76551C24.2984 6.92639 27.6768 7.81122 30.8943 9.09824C31.4574 9.33955 31.8596 9.25911 32.4227 9.09824C39.1796 6.36332 46.1777 4.83498 53.4977 5.31761C56.1522 5.47849 58.6458 6.04156 61.1394 7.08727C61.7829 7.32858 62.0242 7.24814 62.2655 6.60463C63.0699 4.91542 63.7134 3.14576 64.196 1.37611C64.4373 0.410842 65.0004 -0.0717909 65.8048 0.00864799C66.6092 0.0890868 67.0114 0.652159 67.0918 1.69786C67.4136 6.28288 70.0681 9.25911 73.8487 11.431C74.2509 11.6723 74.6531 11.8332 75.0553 11.994C75.6988 12.3158 76.1814 12.7984 76.101 13.5224C76.0205 14.3268 75.5379 14.729 74.7335 14.8094C73.0443 15.1312 71.5159 15.8551 70.3094 17.1421C69.9876 17.4639 69.9072 17.7052 69.9876 18.1878C71.1138 23.0946 70.9529 28.0818 70.3094 32.9886C68.7006 45.3762 64.5982 57.0398 60.1741 68.623C59.2088 71.0361 58.1631 73.3689 57.2783 75.782C55.9912 79.4018 53.0955 80.3671 49.7975 79.8844C45.6146 79.2409 42.8797 76.7473 40.9492 73.1276C38.8578 69.2665 37.8925 65.0032 37.4099 60.6595C37.3295 60.2573 37.5708 59.4529 37.0077 59.4529C36.5251 59.4529 36.7664 60.2573 36.6859 60.6595C36.5251 64.9228 35.8011 69.0252 33.7097 72.7254C31.0552 77.6321 26.3898 80.0453 21.1613 79.1605C19.0698 78.8387 17.7024 77.7126 16.898 75.782C13.2783 66.9338 10.1411 57.9246 7.64754 48.6741C6.03877 42.4804 4.67127 36.2866 4.18863 29.8515C3.86688 25.6686 3.8669 21.5663 4.9126 17.4639C6.7627 10.1439 12.8761 7.40902 17.7024 6.84595C18.7481 6.76551 19.7134 6.68507 20.7591 6.76551ZM35.3185 11.0288C35.7207 11.2701 35.8815 11.431 36.1229 11.5114C38.0534 12.5571 39.9839 13.6833 41.7536 14.8898C44.0059 16.3377 46.0973 17.9465 48.1887 19.7162C48.9126 20.3597 48.9931 21.1641 48.43 21.8076C47.9474 22.4511 47.0625 22.5315 46.3386 21.9685C46.2582 21.888 46.0973 21.8076 46.0168 21.6467C41.3514 17.7052 36.2837 14.4876 30.653 12.0745C26.4702 10.3048 22.2069 9.0178 17.6219 9.74175C13.0369 10.3853 9.65851 12.718 8.04974 17.2226C7.40623 19.0727 7.08443 21.0032 7.00399 22.9337C6.68224 28.8862 7.48665 34.6778 8.69324 40.4694C11.1868 52.2939 15.0479 63.5553 19.5525 74.7363C20.0351 75.8625 20.8395 76.4256 22.0461 76.506C26.068 76.7473 29.1247 75.219 31.1356 71.7601C32.4227 69.5078 33.0662 67.0142 33.4684 64.5206C33.7097 62.9923 33.7901 61.3835 33.8706 59.7747C33.951 58.1659 34.7554 57.0398 36.2033 56.6376C37.973 56.155 39.823 57.2811 40.1448 59.1312C40.3861 60.9813 40.6275 62.8314 41.0297 64.6815C41.7536 67.899 42.7993 71.0361 44.8907 73.6906C46.6604 75.9429 48.9931 77.1495 51.8084 77.0691C53.0955 77.0691 53.9803 76.4255 54.4629 75.219C54.8651 74.1733 55.3478 73.0471 55.75 72.0014C60.0937 61.303 64.0351 50.4438 66.4483 39.1019C67.494 34.1147 68.1375 29.0471 67.9767 23.899C67.9767 23.4164 67.9766 22.8533 67.7353 22.2098C67.3331 23.4968 67.2527 24.6229 67.0918 25.6686C67.0114 26.6339 66.4483 27.2774 65.6439 27.2774C64.8395 27.2774 64.2765 26.6339 64.2765 25.6686C64.0351 20.4401 61.4611 16.7399 56.7152 14.5681C55.9913 14.2463 55.5086 13.7637 55.5891 12.9593C55.7499 12.0745 56.313 11.7527 57.1978 11.6723C58.2435 11.5918 59.2088 11.1092 59.9328 10.3048C60.2545 9.98306 60.2545 9.74175 59.7719 9.66131C59.0479 9.50043 58.324 9.17868 57.6805 9.0178C49.9583 7.08727 42.6384 8.53516 35.3185 11.0288ZM65.3221 6.68507C64.2764 9.25911 62.8285 11.2701 60.898 12.9593C60.4154 13.3615 60.6567 13.5224 60.9785 13.7637C62.7481 15.1311 64.196 16.7399 65.2417 18.6705C65.3222 18.8313 65.3222 18.9922 65.6439 18.9922C66.7701 16.4986 68.3788 14.4072 70.9529 12.9593C68.5397 11.3505 66.6896 9.33955 65.3221 6.68507Z" fill="white"/>
<path id="Vector_2" d="M20.5981 18.3485C21.4025 18.4289 21.9655 18.8311 22.046 19.5551C22.2069 23.1748 24.3787 25.3467 27.4354 26.7946C28.1593 27.1163 28.5615 27.6794 28.4007 28.4838C28.3202 29.0469 27.918 29.4491 27.355 29.6099C23.9765 30.173 22.8504 32.6666 22.2069 35.5624C22.1264 36.0451 22.046 36.5277 22.046 37.0103C21.9655 37.8951 21.322 38.5387 20.5981 38.4582C19.7937 38.4582 19.2306 37.8147 19.2306 36.8494C19.2306 35.8037 18.9893 34.758 18.5871 33.7928C17.7023 31.7014 16.2544 30.2535 14.163 29.3686C13.1173 28.886 12.7151 28.0012 13.2782 27.1968C13.5195 26.7946 13.8412 26.5533 14.3239 26.5533C15.45 26.4728 16.0935 25.8293 16.737 25.0249C17.9436 23.4162 18.6676 21.5661 19.1502 19.6355C19.3915 18.8311 19.7937 18.3485 20.5981 18.3485ZM20.4372 24.4619C19.7132 25.8293 18.9089 26.9555 17.8631 28.0012C17.7023 28.162 17.7023 28.3229 17.8631 28.4034C18.9089 29.2078 19.7133 30.2535 20.5177 31.46C21.3221 30.0121 22.2873 28.886 23.5743 28.0012C22.3677 26.9555 21.322 25.8293 20.4372 24.4619Z" fill="white"/>
</g>
</g>
</svg>
