<svg width="80" height="80" viewBox="0 0 80 80" fill="none" xmlns="http://www.w3.org/2000/svg">
<g id="Icon">
<g id="Group">
<path id="Vector" d="M41.4815 71.9057C40.5821 70.6316 39.6827 69.4324 38.9333 68.3082C38.6335 67.8585 38.3337 68.0834 38.0339 68.2332C35.5606 69.3575 32.9375 69.6572 30.3143 68.8328C26.7168 67.7836 24.4684 65.2353 23.2692 61.7878C22.6697 60.064 21.9951 58.3402 21.3206 56.6913C20.2713 54.0682 21.1707 51.9696 23.8688 50.9953C24.0187 50.9204 24.2436 50.8454 24.3935 50.7705C24.9181 50.6206 24.9181 50.4707 24.6183 50.021C24.2435 49.5713 23.7939 49.0467 23.4941 48.5221C22.8945 47.6227 22.2949 46.8732 21.0958 46.8732C20.1215 46.7983 19.4469 46.0488 18.8473 45.2993C15.5497 40.7275 12.177 36.0808 8.87931 31.509C8.35468 30.8344 8.05491 30.01 8.05491 29.1856C8.05491 28.8109 7.905 28.586 7.53027 28.5111C6.70584 28.2113 6.03131 27.6867 5.50668 26.9372C4.30752 25.2883 3.10836 23.6395 1.9092 21.9157C0.410254 19.8172 0.784983 17.4938 2.88351 15.9948C3.78288 15.3203 4.68225 14.6458 5.88141 14.6458C7.30541 14.5708 8.42963 15.0955 9.25405 16.2197C10.6031 18.0184 11.9522 19.8921 13.2263 21.7658C13.676 22.3654 13.9008 23.1149 13.9008 23.8643C13.9008 24.314 13.9758 24.5389 14.4254 24.6138C15.2499 24.8386 15.8494 25.3633 16.2991 26.0378C19.6718 30.6846 22.9695 35.2563 26.3421 39.9031C27.7661 41.8517 27.3913 44.1751 25.4427 45.5991C24.9181 45.9738 24.993 46.1987 25.2928 46.6484C25.9674 47.4728 26.6419 48.3722 27.2414 49.2715C27.4663 49.5713 27.6162 49.6463 27.9909 49.4964C30.0895 48.672 32.188 47.8475 34.2865 47.0231C34.7362 46.8732 34.7362 46.5734 34.7362 46.1987C34.7362 43.9503 34.7362 41.6269 34.7362 39.3785C34.7362 39.1536 34.6613 38.8538 34.7362 38.7039C35.3358 37.7296 34.6613 37.2799 34.1366 36.6054C32.8625 35.0315 32.188 33.2328 32.113 31.2841C32.0381 29.9351 32.4878 29.4854 33.8368 29.4854C39.1581 29.4854 44.5543 29.4854 49.8756 29.4854C50.6251 29.4854 50.775 29.2605 50.7 28.586C50.6251 27.6117 50.7 26.5624 50.7 25.5881C50.7 24.6138 50.2503 24.1641 49.5009 24.0892C48.6764 24.0142 48.2268 24.389 48.0769 25.3633C47.927 26.3376 47.3274 26.8622 46.5779 26.7123C45.8284 26.5624 45.3788 25.8879 45.4537 24.9885C45.6785 22.8151 47.3274 21.3911 49.6508 21.466C51.8242 21.541 53.3981 23.1149 53.4731 25.2883C53.4731 26.4875 53.4731 27.6867 53.4731 28.8858C53.4731 29.3355 53.623 29.4854 54.0727 29.4104C55.1219 29.4104 56.2461 29.4104 57.2954 29.4104C58.3447 29.4104 58.8693 29.9351 58.7943 30.9843C58.7194 33.0829 58.0449 34.9566 56.6958 36.6054C56.5459 36.8302 56.3211 37.0551 56.0962 37.3549C57.895 37.3549 59.5438 37.3549 61.1927 37.3549C61.4175 37.3549 61.5674 37.205 61.4925 36.9801C61.4925 36.8302 61.4925 36.6804 61.4925 36.5305C61.4925 28.4361 61.4925 20.2668 61.4925 12.1725C61.4925 7.67567 58.5695 4.00324 54.2975 2.95398C53.548 2.72914 52.7236 2.72914 51.8992 2.72914C47.927 2.72914 44.0297 2.72914 40.0575 2.72914C38.7084 2.72914 37.5842 3.17882 36.6099 4.15314C36.0103 4.75272 35.2608 5.27735 34.8861 5.95188C34.5863 6.70135 35.4107 7.30093 35.6356 8.05041C36.7598 11.423 35.6356 15.1704 32.7876 17.194C31.9632 17.7936 31.3636 17.7936 30.689 17.0441C27.6911 14.1212 24.7682 11.1233 21.8452 8.2003C21.1707 7.52578 21.0958 6.9262 21.6953 6.10177C24.0187 2.80408 28.5905 1.75482 32.113 3.85335C32.6377 4.15314 32.9375 4.22809 33.3122 3.70345C35.5606 0.780501 38.4836 -0.193816 42.0811 0.0310266C45.3038 0.255869 48.6015 0.105974 51.8992 0.105974C58.7944 0.105974 64.0407 5.3523 64.0407 12.2475C64.0407 20.3418 64.0407 28.3612 64.0407 36.4555C64.0407 37.205 64.1906 37.4298 64.94 37.3549C66.2891 37.2799 66.7388 37.7296 66.7388 39.1536C66.7388 42.0766 66.7388 44.9995 66.7388 47.9225C66.7388 48.4471 66.8887 48.6719 67.4133 48.8218C70.2613 49.5713 73.1093 50.3957 75.8824 51.2202C77.9809 51.8947 79.4049 53.8433 79.5548 56.0168C79.6297 58.1903 78.4306 60.2139 76.482 61.1132C75.3577 61.6379 74.1586 61.7878 72.8845 61.413C70.6361 60.8134 68.3876 60.2139 66.2141 59.4644C63.9657 58.7149 61.7173 58.4901 59.319 58.7149C56.1712 59.0147 53.1733 59.9141 50.2503 61.2631C51.5244 63.0619 52.7236 64.7857 53.9977 66.5095C54.2975 66.9591 54.5973 66.6593 54.8221 66.5095C57.0706 65.3852 59.3939 64.261 61.6424 63.0619C62.5417 62.6122 63.2162 62.6871 63.9657 63.2867C67.863 66.4345 71.7603 69.5823 75.7325 72.7301C77.2314 73.9293 77.7561 75.653 77.1565 77.3019C76.5569 78.9507 75.058 80 73.1843 80C56.471 80 39.7577 80 23.0444 80C20.9459 80 19.4469 78.8008 18.9972 76.8522C18.5475 75.0535 19.4469 73.2547 21.0958 72.4303C21.7703 72.1305 22.4448 71.9806 23.1943 71.9806C28.9652 71.9806 34.7362 71.9806 40.5072 71.9806C40.732 71.9057 41.0318 71.9057 41.4815 71.9057ZM48.0019 77.2269C56.3211 77.2269 64.5653 77.2269 72.8845 77.2269C73.634 77.2269 74.3834 77.152 74.6083 76.2526C74.9081 75.4282 74.4584 74.9785 73.8588 74.4539C70.2613 71.6059 66.7388 68.7579 63.1413 65.9099C62.6916 65.5351 62.3169 65.5351 61.7922 65.76C56.2461 68.533 50.7 71.3061 45.1539 74.0792C44.6293 74.3789 44.0297 74.4539 43.4301 74.4539C36.7598 74.4539 30.0895 74.4539 23.4191 74.4539C23.1943 74.4539 22.8945 74.4539 22.6697 74.4539C21.9202 74.5288 21.3956 75.1284 21.4705 75.8029C21.5455 76.5524 21.9202 77.0021 22.6697 77.077C22.9695 77.152 23.1943 77.077 23.4941 77.077C31.6633 77.2269 39.8326 77.2269 48.0019 77.2269ZM74.0836 58.8648C75.0579 58.8648 75.8074 58.4901 76.2571 57.7406C77.4563 56.0918 76.5569 54.0682 74.3834 53.4686C65.3148 50.9204 56.2461 48.3722 47.1025 45.8239C45.9783 45.5242 44.8541 45.5242 43.8049 45.9738C41.7063 46.7983 39.6078 47.6227 37.5093 48.4471C33.2373 50.096 28.9653 51.7448 24.7682 53.3936C23.569 53.8433 23.3442 54.4429 23.7939 55.6421C24.0187 56.2416 24.3185 56.7663 24.4684 57.3659C24.6932 58.1153 24.993 58.1903 25.7425 57.8905C31.9631 55.5671 38.1838 53.2437 44.4044 50.8454C45.079 50.5456 45.7535 50.6206 46.428 50.7705C55.1969 53.3187 64.0407 55.9419 72.8095 58.4901C73.2592 58.7149 73.7089 58.8648 74.0836 58.8648ZM55.7964 56.3915C52.4988 55.4172 49.351 54.5179 46.2781 53.6185C45.7535 53.4686 45.3038 53.4686 44.7792 53.6934C38.7084 56.0168 32.6377 58.2652 26.492 60.5137C25.8174 60.7385 25.8175 61.0383 26.0423 61.6379C27.841 65.9848 32.3379 67.7836 36.7598 65.9099C39.0082 64.9356 41.1067 63.5116 43.1303 62.2374C45.9783 60.4387 48.8263 58.7149 52.0491 57.5907C53.1733 57.141 54.3724 56.8412 55.7964 56.3915ZM64.0407 47.8475C64.0407 45.5242 64.0407 43.2757 64.0407 40.9524C64.0407 40.2029 63.8908 39.978 63.1413 39.978C54.8971 39.978 46.6529 39.978 38.3337 39.978C38.1838 39.978 38.0339 39.978 37.8091 39.978C37.5842 39.978 37.3594 40.053 37.3594 40.3528C37.3594 42.0766 37.3594 43.8004 37.3594 45.674C39.308 44.9246 41.1817 44.1751 43.0554 43.5006C44.5543 42.901 46.0533 42.826 47.6272 43.2757C50.0255 43.9503 52.4238 44.6248 54.8221 45.2993C57.895 46.1237 60.8929 46.9482 64.0407 47.8475ZM45.3788 32.0336C42.156 32.0336 38.9333 32.0336 35.6356 32.0336C34.8861 32.0336 34.8112 32.2584 35.036 32.858C35.9354 35.4062 38.3337 37.2799 41.0318 37.3549C43.8798 37.4298 46.7278 37.4298 49.5758 37.3549C52.2739 37.2799 54.6722 35.4062 55.5716 32.858C55.7965 32.2584 55.7964 32.0336 54.972 32.0336C51.8992 32.0336 48.6764 32.0336 45.3788 32.0336ZM24.5434 42.2265C24.5434 41.7768 24.3185 41.402 24.0937 41.1023C22.2949 38.629 20.4962 36.0808 18.6225 33.6075C17.1985 31.6589 15.7745 29.7102 14.4254 27.7616C13.676 26.7123 13.0764 26.6374 12.0271 27.3869C11.8772 27.5368 11.6524 27.6117 11.5025 27.7616C10.5282 28.5111 10.4532 29.1107 11.1277 30.085C14.3505 34.5818 17.6482 39.0787 20.8709 43.5755C21.3206 44.1751 21.7703 44.5498 22.5198 44.325C23.4191 43.9503 24.5434 42.901 24.5434 42.2265ZM47.7771 62.4623C47.7021 62.5372 47.5522 62.6122 47.4023 62.6122C45.3788 63.8863 43.4301 65.0854 41.4065 66.3596C41.0318 66.5844 41.1068 66.7343 41.3316 67.0341C42.3059 68.3831 43.2053 69.6572 44.1796 71.0063C44.4044 71.381 44.6293 71.456 45.079 71.2311C47.1775 70.1819 49.2011 69.1326 51.2996 68.0834C51.6743 67.8585 51.7493 67.7836 51.5245 67.3339C50.4002 65.8349 49.276 64.261 48.2267 62.6871C48.0019 62.6871 47.927 62.5372 47.7771 62.4623ZM28.2158 5.42725C26.9417 5.42725 25.8924 5.80198 24.8431 6.55146C24.3935 6.85125 24.3185 7.07609 24.7682 7.52578C27.0166 9.69925 29.1901 11.8727 31.3636 14.1212C31.8132 14.5708 32.0381 14.4959 32.3379 14.0462C33.5371 12.3224 33.7619 10.4487 32.8625 8.57504C31.8882 6.47651 30.2394 5.50219 28.2158 5.42725ZM11.2776 23.7144C11.2027 23.6395 11.2027 23.3397 11.0528 23.1149C9.70375 21.2412 8.42963 19.4424 7.08058 17.5687C6.63089 16.9692 6.03132 16.9692 5.35679 17.2689C5.057 17.4188 4.7572 17.6437 4.45741 17.8685C3.4831 18.618 3.40815 19.2176 4.08268 20.1919C5.20689 21.8407 6.40606 23.4146 7.60522 25.0635C8.0549 25.6631 8.50457 26.0378 9.25405 25.813C10.3033 25.5881 11.2776 24.5389 11.2776 23.7144Z" fill="white"/>
</g>
</g>
</svg>
