<svg width="80" height="80" viewBox="0 0 80 80" fill="none" xmlns="http://www.w3.org/2000/svg">
<g id="Icon">
<g id="Group">
<path id="Vector" d="M13.0405 79.9296C11.4222 79.226 11 78.0299 11 76.2709C11.0704 53.3333 11 30.3958 11 7.45822C11 6.40281 11.2111 5.41777 12.1258 4.78452C13.3219 3.94019 14.6588 4.15128 15.9956 4.36236C16.4881 4.43272 16.6992 4.9956 16.6288 5.55849C16.5585 6.12137 16.2067 6.47318 15.6438 6.54354C15.0809 6.6139 14.5884 6.6139 14.0255 6.6139C13.533 6.6139 13.3219 6.82498 13.3219 7.3175C13.3219 7.45822 13.3219 7.59895 13.3219 7.81003C13.3219 30.6772 13.3219 53.5444 13.3219 76.4116C13.3219 77.5374 13.3219 77.5374 14.4477 77.5374C31.6157 77.5374 48.7133 77.5374 65.8813 77.5374C67.007 77.5374 67.007 77.5374 67.007 76.4116C67.007 53.5444 67.007 30.6069 67.007 7.73967C67.007 6.6139 67.007 6.6139 65.8813 6.6139C62.9965 6.6139 60.1117 6.6139 57.2269 6.6139C56.5937 6.6139 56.3122 6.75462 56.3826 7.45822C56.3826 7.66931 56.3826 7.81003 56.3826 8.02111C56.3122 8.51363 56.5233 8.65435 57.0158 8.65435C59.1266 8.65435 61.2375 8.65435 63.3483 8.65435C64.6851 8.65435 65.037 9.00616 65.037 10.2726C65.037 14.3536 65.037 18.4345 65.037 22.5154C65.037 22.7265 65.037 22.8672 65.037 23.0783C64.9666 23.7115 64.6148 24.0633 63.9815 24.1337C63.3483 24.1337 62.9261 23.8522 62.7854 23.219C62.715 22.9376 62.715 22.6561 62.715 22.3747C62.715 18.8566 62.715 15.2683 62.715 11.7502C62.715 11.117 62.504 10.9763 61.9411 10.9763C60.3228 11.0466 58.7045 10.9763 57.0862 10.9763C56.5937 10.9763 56.3826 11.117 56.3826 11.6095C56.4529 12.5945 56.3826 13.5092 56.3826 14.4943C56.3826 16.1126 55.3272 17.3087 53.6385 17.4494C53.4274 17.4494 53.146 17.4494 52.9349 17.4494C44.3509 17.4494 35.8373 17.4494 27.2533 17.4494C26.5497 17.4494 25.8461 17.3791 25.2128 17.0273C24.3685 16.4644 23.876 15.6904 23.876 14.635C23.876 13.5796 23.876 12.5242 23.876 11.5391C23.876 11.117 23.7353 10.9763 23.3131 10.9763C21.5541 10.9763 19.7951 10.9763 18.1064 10.9763C17.6843 10.9763 17.5435 11.117 17.6139 11.5391C17.6139 11.6799 17.6139 11.8206 17.6139 12.0317C17.6139 32.1548 17.6139 52.2076 17.6139 72.3307C17.6139 73.5268 17.4732 73.3861 18.6693 73.3861C25.4943 73.3861 32.2489 73.3861 39.0739 73.3861C43.2955 73.3861 46.5321 70.7124 47.4468 66.7019C47.7282 65.4354 47.6579 64.0985 47.6579 62.832C47.6579 62.4802 47.4468 62.4099 47.1653 62.3395C44.9138 61.4248 43.6473 59.7361 43.1548 57.3439C42.4512 54.0369 41.7476 50.73 41.1143 47.423C41.044 46.9305 40.9033 46.5084 40.1996 46.5084C39.496 46.5084 39.3553 46.9305 39.285 47.423C38.5814 50.73 37.8778 54.0369 37.2445 57.3439C36.6113 60.4398 34.5708 62.3395 31.5453 62.6913C29.153 62.9727 27.0422 61.2841 26.9015 58.8215C26.8311 58.1179 26.8311 57.4142 26.9015 56.7106C26.9015 56.007 27.394 55.5849 28.0273 55.5849C28.6605 55.5849 29.153 56.007 29.2234 56.7106C29.2938 57.2735 29.2234 57.9068 29.2234 58.54C29.2938 59.8769 30.2084 60.5805 31.4749 60.3694C33.3043 60.088 34.5004 58.8918 34.9226 56.9921C35.6262 53.5444 36.4002 50.0967 37.1038 46.7194C37.4556 45.0308 38.511 44.1865 40.1996 44.1865C41.9587 44.1865 43.0141 44.9604 43.3659 46.7194C44.0695 50.1671 44.8435 53.6148 45.5471 56.9921C45.8285 58.2586 46.3914 59.2436 47.6579 59.9472C47.6579 59.3843 47.7282 58.8918 48.1504 58.6104C48.5726 58.3289 49.1355 58.3993 49.5576 58.3993C51.1759 58.3993 51.1759 58.3993 51.1759 56.781C51.1759 54.8109 51.1759 52.9112 51.1759 50.9411C51.1759 47.1416 52.2313 43.6939 54.4125 40.5981C55.4679 39.1205 56.1012 37.5022 56.1715 35.6728C55.8197 35.7432 55.679 36.0246 55.4679 36.1654C53.2867 38.3465 51.1055 40.5277 48.9244 42.7089C48.0097 43.6236 47.5172 43.6236 46.6025 42.7089C44.2806 40.387 41.9587 38.0651 39.5664 35.6728C38.7221 34.8285 38.7221 34.2656 39.5664 33.4213C40.4107 32.577 41.2551 31.7326 42.0994 30.8883C42.8734 30.1143 43.4362 30.1143 44.2102 30.8883C45.1953 31.8734 46.2507 32.8584 47.1653 33.8434C47.5171 34.2656 47.7282 34.336 48.2208 33.8434C49.7687 32.2252 51.387 30.6069 53.0053 29.0589C53.4275 28.6368 53.3571 28.4257 52.9349 28.1442C50.1205 25.9631 47.0246 25.4002 43.7177 26.8074C41.2551 27.8628 38.9332 27.9332 36.4705 26.8074C32.8822 25.1891 28.6605 26.2445 26.0572 29.3404C23.5242 32.4362 23.2427 36.7282 25.4943 40.0352C27.2533 42.5682 28.5198 45.2419 28.8716 48.3377C28.9419 49.1821 29.0123 50.0264 29.0123 50.8004C29.0123 51.6447 28.5198 52.1372 27.8162 52.1372C27.1829 52.1372 26.6904 51.6447 26.6904 50.8004C26.6904 47.2823 25.4943 44.1865 23.5242 41.372C20.6394 37.1504 20.9912 31.7326 24.2278 27.7924C27.4644 23.9226 32.8118 22.6561 37.4556 24.6966C39.2146 25.4705 40.8329 25.4002 42.5919 24.6966C47.095 22.8672 51.1055 23.6412 54.905 26.737C56.3122 27.8628 57.5787 29.0589 58.8452 30.3254C59.6895 31.1697 59.6895 31.7326 58.8452 32.577C58.423 32.9991 58.2823 33.4213 58.3527 33.9842C58.6341 36.6579 58.0009 39.1909 56.453 41.372C54.905 43.5532 53.8496 45.9455 53.4978 48.5488C53.2867 50.4486 53.3571 52.3483 53.3571 54.248C53.3571 55.3738 53.3571 56.4996 53.3571 57.6253C53.3571 58.0475 53.4978 58.1882 53.92 58.1882C58.3527 58.3289 62.4336 54.5998 62.4336 50.1671C62.504 43.1311 62.504 36.095 62.504 29.0589C62.504 28.7071 62.504 28.3553 62.5743 28.0739C62.7151 27.4406 63.1372 27.1592 63.7705 27.2296C64.3333 27.2999 64.6851 27.6517 64.8259 28.2146C64.8259 28.3553 64.8259 28.496 64.8259 28.6368C64.8259 35.7432 64.8962 42.8496 64.8259 49.956C64.7555 56.007 62.4336 61.2841 58.6341 65.9279C54.0607 71.416 48.2208 74.5822 41.1143 75.4969C40.27 75.6376 39.3553 75.6376 38.4406 75.6376C31.2639 75.6376 24.0871 75.6376 16.9103 75.6376C15.3624 75.6376 15.0809 75.3562 15.0809 73.8083C15.0809 52.7001 15.0809 31.5919 15.0809 10.4837C15.0809 8.86544 15.3624 8.58399 16.9807 8.58399C18.9507 8.58399 20.9912 8.58399 22.9613 8.58399C23.5242 8.58399 23.6649 8.44327 23.6649 7.88039C23.5945 6.40281 23.876 6.6139 22.4688 6.6139C21.9059 6.6139 21.343 6.6139 20.7801 6.6139C20.0062 6.54354 19.5136 6.05101 19.5136 5.41777C19.5136 4.78452 20.0062 4.36236 20.7801 4.292C21.5541 4.292 22.2577 4.292 23.0317 4.292C23.4538 4.292 23.6649 4.22164 23.6649 3.72911C23.6649 2.60334 24.1574 2.18118 25.3536 2.18118C28.7309 2.18118 32.0378 2.18118 35.4151 2.18118C35.8373 2.18118 36.1891 2.11082 36.4705 1.68865C38.2999 -0.562885 41.5365 -0.562885 43.3659 1.68865C43.6473 2.04046 43.9288 2.18118 44.4213 2.18118C47.7282 2.18118 51.1056 2.18118 54.4125 2.18118C55.679 2.18118 56.1012 2.60334 56.1715 3.79947C56.1715 4.36236 56.5233 4.292 56.8751 4.292C59.7599 4.292 62.715 4.36236 65.5998 4.292C68.1328 4.22164 69.1179 5.76957 69.1179 7.81003C69.0475 30.6772 69.0475 53.4741 69.1179 76.3413C69.1179 78.0299 68.6253 79.2964 67.0774 80C49.2058 79.9296 31.1231 79.9296 13.0405 79.9296ZM40.1996 15.1275C44.4916 15.1275 48.7837 15.1275 53.0757 15.1275C53.9903 15.1275 54.1311 15.0572 54.1311 14.0721C54.1311 11.117 54.1311 8.16183 54.1311 5.20668C54.1311 4.6438 53.92 4.50308 53.4275 4.50308C50.2612 4.50308 47.095 4.50308 43.9288 4.50308C43.0844 4.50308 42.4512 4.22164 42.029 3.44767C41.2551 1.9701 39.2146 1.9701 38.4406 3.44767C38.0185 4.22164 37.4556 4.50308 36.5409 4.50308C33.445 4.50308 30.2788 4.50308 27.1829 4.50308C26.5497 4.50308 26.2683 4.6438 26.3386 5.34741C26.409 8.23219 26.3386 11.117 26.3386 14.0018C26.3386 15.0572 26.409 15.1275 27.4644 15.1275C31.6157 15.1275 35.9077 15.1275 40.1996 15.1275ZM60.5339 58.6104C58.6341 59.8065 56.5937 60.5101 54.3421 60.5101C53.146 60.5101 52.0202 60.5805 50.8241 60.5101C50.1909 60.5101 49.9094 60.6508 49.9798 61.3544C50.0501 62.4099 49.9798 63.5356 49.9798 64.6614C49.9798 66.9833 49.3465 69.1645 48.0097 71.1346C53.7793 68.6016 58.0009 64.38 60.5339 58.6104ZM56.8751 31.3105C56.5937 31.0994 56.2419 30.8883 56.0308 30.6772C55.6086 30.1143 55.2568 30.1847 54.7643 30.6772C52.8646 32.6473 50.8945 34.6174 48.9244 36.5172C48.0097 37.4318 47.5172 37.4318 46.6025 36.5172C45.7581 35.7432 44.9842 34.8989 44.2102 34.1249C43.2252 33.1398 43.2252 33.1398 42.2401 34.1249C41.8883 34.4767 41.8883 34.6174 42.2401 34.9692C43.9991 36.6579 45.6878 38.3465 47.3764 40.1055C47.7282 40.4573 47.8689 40.4573 48.2208 40.1055C50.9648 37.3615 53.7089 34.6174 56.453 31.8734C56.5233 31.7326 56.664 31.6623 56.8751 31.3105Z" fill="white"/>
<path id="Vector_2" d="M40.1998 13.1574C36.8225 13.1574 33.3748 13.1574 29.9975 13.1574C29.7864 13.1574 29.505 13.1574 29.2939 13.1574C28.6606 13.0166 28.3088 12.6648 28.3088 12.0316C28.3088 11.3984 28.6606 10.9762 29.2235 10.8355C29.4346 10.7651 29.716 10.8355 29.9271 10.8355C36.8225 10.8355 43.6475 10.8355 50.5428 10.8355C50.7539 10.8355 51.0353 10.8355 51.2464 10.8355C51.8796 10.9762 52.2314 11.3984 52.1611 12.0316C52.1611 12.6648 51.8093 13.0166 51.176 13.1574C50.965 13.2277 50.6835 13.1574 50.4724 13.1574C47.0248 13.1574 43.5771 13.1574 40.1998 13.1574Z" fill="white"/>
</g>
</g>
</svg>
