<svg width="80" height="80" viewBox="0 0 80 80" fill="none" xmlns="http://www.w3.org/2000/svg">
<g id="Icon">
<g id="Group">
<path id="Vector" d="M50.1478 0C57.9795 0 65.8111 0 73.6428 0C76.5997 0 78.1181 1.5983 78.1181 4.55516C78.1181 18.3805 78.1181 32.2058 78.1181 46.111C78.1181 49.0679 76.5198 50.6662 73.5629 50.6662C62.0551 50.6662 50.5474 50.6662 39.0396 50.6662C38.4003 50.6662 38.1605 50.826 37.8409 51.3854C35.0438 56.5 33.2058 61.9342 32.5665 67.6881C32.2468 70.8847 31.4477 73.9215 30.169 76.8783C30.0891 77.0382 30.0891 77.1181 30.0092 77.2779C29.2899 79.1959 28.0912 80.0749 25.7737 79.995C18.1817 79.8352 10.5099 79.9151 2.91797 79.9151C1.39958 79.9151 1 79.5155 1 77.9971C1 69.9257 1 61.8543 1 53.7829C1 53.0636 1.23975 52.5042 1.79915 51.9448C5.07567 48.6683 8.35219 45.3918 11.6287 42.1153C12.1082 41.6358 12.6676 41.3161 13.3069 41.1563C16.024 40.517 18.8211 39.7977 21.5382 39.1584C22.1775 38.9986 22.3373 38.7588 22.3373 38.1195C22.3373 26.9314 22.3373 15.7433 22.3373 4.55516C22.3373 1.5983 23.9356 0 26.8925 0C34.5643 0 42.396 0 50.1478 0ZM3.55728 65.4505C3.55728 69.1266 3.55728 72.8027 3.55728 76.3988C3.55728 77.1181 3.79703 77.2779 4.43635 77.2779C11.6287 77.2779 18.901 77.2779 26.0933 77.2779C26.7327 77.2779 27.0523 77.0382 27.372 76.4788C28.7305 73.6018 29.4498 70.565 29.9293 67.4483C30.4088 64.4116 30.8883 61.2949 31.8472 58.338C33.1259 54.582 34.884 50.9858 36.8819 47.6294C37.5212 46.5905 37.7609 45.4717 37.4413 44.273C37.0417 42.6747 35.4434 41.3161 33.8451 41.0764C32.087 40.8366 30.6485 41.5558 29.6895 43.1541C25.9335 49.6273 22.1775 56.1004 18.4215 62.5735C17.7822 63.6923 17.2228 64.0919 16.5035 63.8522C15.5446 63.5325 15.5446 62.7333 15.4646 61.8543C15.3847 59.1372 15.0651 56.5 14.3458 53.8628C13.9462 52.5841 14.4257 51.9448 15.7044 51.8649C18.2617 51.5452 20.2595 50.4264 21.698 48.2687C22.0177 47.7892 22.1775 47.3897 22.1775 46.8302C22.1775 45.3119 22.1775 43.8734 22.1775 42.355C22.1775 41.7956 22.0976 41.6358 21.4583 41.7956C18.9809 42.4349 16.5035 43.0742 14.0262 43.6336C13.6266 43.7136 13.3069 43.9533 12.9873 44.273C10.0304 47.3097 6.99363 50.2666 3.95686 53.3034C3.55728 53.7029 3.39745 54.1025 3.39745 54.582C3.55728 58.2581 3.55728 61.8543 3.55728 65.4505ZM39.6789 47.9491C40.0785 47.9491 40.3182 47.9491 40.558 47.9491C51.5863 47.9491 62.6145 47.9491 73.6428 47.9491C75.0813 47.9491 75.4809 47.5495 75.4809 46.0311C75.4809 38.8387 75.4809 31.6464 75.4809 24.454C75.4809 22.616 75.4809 22.616 73.6428 22.616C71.4851 22.616 71.4851 22.616 71.0056 24.7737C70.2864 27.7305 70.2065 30.7673 70.1266 33.884C70.0466 36.1216 69.9667 38.3592 69.0877 40.517C68.5283 41.7157 67.7291 42.5947 66.2906 42.6747C64.9321 42.6747 64.1329 41.8755 63.4936 40.7567C62.7744 39.3981 62.4547 37.9597 62.3748 36.4413C62.215 35.0827 62.215 33.7242 62.0551 32.3656C61.9752 31.6464 61.8154 30.6874 60.8564 30.7673C59.9773 30.7673 59.8175 31.6464 59.6577 32.3656C59.338 33.7242 59.5778 35.1626 59.338 36.5212C59.0983 38.2793 58.8585 40.0375 57.7397 41.5558C56.4611 43.2341 54.2234 43.1542 53.1046 41.396C52.7051 40.7567 52.3854 40.0375 52.2256 39.3182C51.6662 37.0806 51.5863 34.843 51.5863 32.5254C51.5863 30.2079 51.4264 27.8904 50.867 25.5728C50.7072 24.8536 50.6273 24.0544 50.1478 23.2553C49.2687 26.2122 48.8691 29.0891 48.8691 31.966C48.8691 34.2037 48.7892 36.4413 48.3897 38.6789C48.1499 39.7977 47.8302 40.9165 47.0311 41.7956C45.8324 43.0742 44.0742 43.0742 42.8755 41.7956C42.2362 41.0764 41.8366 40.1973 41.5969 39.2383C41.1174 37.4802 40.9575 35.6421 40.9575 33.8041C40.9575 33.0049 40.8776 32.2857 40.558 31.5665C40.3981 31.1669 40.1584 30.8472 39.599 30.8472C39.1195 30.8472 38.8798 31.1669 38.7199 31.5665C38.4003 32.2857 38.3203 33.0849 38.3203 33.8041C38.3203 35.722 38.1605 37.5601 37.6011 39.3981C37.4413 39.8776 37.6011 40.0375 37.9208 40.2772C39.1994 41.3161 39.9986 42.6747 40.3182 44.3529C40.3182 45.4717 40.2383 46.6704 39.6789 47.9491ZM50.1478 2.6372C42.3161 2.6372 34.5643 2.6372 26.7327 2.6372C25.2143 2.6372 24.8147 3.03677 24.8147 4.55516C24.8147 8.87057 24.8147 13.186 24.8147 17.4215C24.8147 18.2206 24.4151 19.3395 24.9745 19.8189C25.454 20.2185 26.5728 19.8989 27.372 19.9788C27.8515 19.9788 28.0113 19.8989 27.8515 19.3395C27.5318 17.901 27.2921 16.3826 27.5318 14.8642C28.0912 11.5877 30.3288 9.74964 33.2058 8.471C34.884 7.67185 36.5622 7.67185 38.0007 8.87057C39.1195 9.82956 39.9187 9.74964 41.0375 8.87057C42.0764 7.99151 43.355 7.67185 44.7935 8.15134C46.7114 8.79066 48.3897 9.74964 49.6683 11.268C49.988 11.6676 50.1478 11.7475 50.5474 11.268C51.3465 10.2291 52.3854 9.58981 53.5042 8.87057C55.8218 7.51202 57.9795 7.59193 60.0573 9.35007C60.5368 9.74964 60.9363 9.82956 61.4957 9.35007C63.5735 7.51202 65.8111 7.51202 68.0488 8.87057C68.6082 9.19024 69.0877 9.5099 69.5672 9.82956C71.2454 11.1082 72.4441 12.7864 72.6838 14.9441C72.8437 16.3027 72.6838 17.7411 72.3642 19.0997C72.2044 19.739 72.4441 19.8189 73.0035 19.8189C73.483 19.8189 74.0424 19.739 74.5219 19.8189C75.2411 19.8989 75.4809 19.739 75.4809 18.86C75.4009 14.0651 75.4809 9.19024 75.4809 4.39533C75.4809 2.87694 75.0813 2.47737 73.5629 2.47737C65.8111 2.6372 57.9795 2.6372 50.1478 2.6372ZM39.4392 19.9788C42.1563 19.9788 44.7935 19.9788 47.5106 19.9788C47.8302 19.9788 48.1499 20.1386 48.2298 19.6591C48.5495 18.1407 49.029 16.7023 48.7093 15.1839C48.1499 12.7065 46.3119 11.5877 44.1542 10.7885C43.6747 10.6287 43.2751 10.7086 42.8755 10.9484C42.0764 11.4279 41.2772 11.9873 40.558 12.5467C39.7588 13.186 39.2793 13.186 38.4802 12.5467C37.761 11.9873 36.9618 11.4279 36.1626 10.9484C35.9229 10.7885 35.6032 10.6287 35.2836 10.7086C32.3267 11.0283 29.9293 13.9851 30.2489 17.0219C30.3288 17.8211 30.5686 18.6202 30.6485 19.4194C30.7284 19.8989 30.9682 20.0587 31.4477 20.0587C34.1648 19.9788 36.802 19.9788 39.4392 19.9788ZM60.8564 19.9788C63.4936 19.9788 66.2107 19.9788 68.8479 19.9788C69.0877 19.9788 69.4872 20.1386 69.6471 19.739C70.0466 18.2206 70.4462 16.7023 70.1266 15.1839C69.6471 12.8663 67.809 11.7475 65.8111 10.9484C65.1718 10.7086 64.6923 10.7086 64.053 11.1082C63.3338 11.5877 62.6145 12.0672 61.8953 12.6266C61.0961 13.186 60.6167 13.186 59.8974 12.6266C59.0983 12.0672 58.379 11.4279 57.5 10.9484C57.2602 10.7885 57.0205 10.7086 56.7008 10.7086C54.7829 10.8685 52.2256 13.0262 51.7461 14.8642C51.3465 16.3826 51.7461 17.8211 52.0658 19.2595C52.1457 19.8189 52.3854 19.9788 52.9448 19.9788C55.5021 19.9788 58.1393 19.9788 60.8564 19.9788ZM60.8564 22.616C58.379 22.616 55.9816 22.616 53.5042 22.616C53.1046 22.616 52.8649 22.616 53.0247 23.1754C54.0636 26.6916 54.2235 30.2878 54.2235 33.884C54.2235 35.3225 54.3833 36.7609 54.7029 38.1994C54.8628 38.8387 54.9427 39.7977 55.4222 39.7977C56.0615 39.7977 56.1414 38.8387 56.3012 38.1994C56.7008 36.681 56.8607 35.0827 56.8607 33.4844C56.8607 32.5254 57.0205 31.5665 57.3401 30.6075C57.9795 28.8493 59.2581 27.9703 60.8564 27.9703C62.4547 27.9703 63.6534 28.9293 64.2928 30.6075C64.6923 31.5665 64.7722 32.6054 64.7722 33.6443C64.7722 35.3225 64.9321 37.0007 65.4116 38.6789C65.5714 39.1584 65.6513 39.8776 66.1308 39.8776C66.5304 39.8776 66.6103 39.1584 66.7701 38.6789C67.3295 36.5212 67.4094 34.2836 67.4094 32.046C67.4094 29.0891 67.7291 26.2122 68.5283 23.3352C68.6881 22.7758 68.6082 22.616 67.9688 22.616C65.6513 22.6959 63.2539 22.616 60.8564 22.616ZM39.5191 22.616C37.0417 22.616 34.6443 22.616 32.1669 22.616C31.7673 22.616 31.5276 22.616 31.6874 23.1754C32.7263 26.6916 32.8861 30.2878 32.8861 33.9639C32.8861 35.2426 33.1259 36.4413 33.2058 37.7199C33.2857 38.6789 34.0049 38.4392 34.5643 38.5191C35.1237 38.599 35.0438 38.0396 35.1237 37.7998C35.4434 36.4413 35.5233 35.0028 35.5233 33.5643C35.5233 32.5254 35.6832 31.5665 36.0028 30.6075C36.6421 28.9293 37.9208 27.9703 39.4392 27.9703C41.0375 27.9703 42.3161 28.8493 42.9554 30.6075C43.355 31.6464 43.4349 32.6853 43.4349 33.8041C43.4349 35.4823 43.5948 37.0806 44.0742 38.6789C44.2341 39.1584 44.314 39.8776 44.7935 39.8776C45.1931 39.8776 45.273 39.1584 45.4328 38.6789C45.9922 36.5212 46.0721 34.2836 46.0721 32.046C46.0721 29.0891 46.3918 26.2122 47.1909 23.3352C47.3508 22.7758 47.2708 22.616 46.6315 22.616C44.314 22.6959 41.9165 22.616 39.5191 22.616ZM24.9745 45.8713C25.6938 44.5926 26.4929 43.3939 27.1322 42.1153C27.8515 40.7567 28.8904 39.6379 30.2489 38.9986C30.5686 38.8387 30.6485 38.599 30.5686 38.2793C30.0891 35.8819 30.0891 33.4844 30.0891 31.087C30.0891 28.7694 29.7694 26.5318 29.21 24.3741C28.8105 22.616 28.8105 22.616 26.9724 22.616C26.5728 22.616 26.1733 22.616 25.6938 22.616C25.0545 22.5361 24.8147 22.6959 24.8147 23.4151C24.8147 30.6075 24.8147 37.7998 24.8147 45.0721C24.8946 45.3119 24.8147 45.5516 24.9745 45.8713ZM20.739 53.2235C19.6202 53.5431 18.6612 54.0226 17.6223 54.2624C17.3826 54.3423 17.2228 54.4222 17.3027 54.7418C17.5424 55.7807 17.7023 56.8196 17.942 58.0983C18.9809 56.3401 19.86 54.8218 20.739 53.2235Z" fill="white"/>
</g>
</g>
</svg>
