<svg width="80" height="80" viewBox="0 0 80 80" fill="none" xmlns="http://www.w3.org/2000/svg">
<g id="Icon" clip-path="url(#clip0_365_638)">
<g id="Group">
<path id="Vector" d="M0 72.6762C0.28169 71.479 0.422535 70.2818 0.774648 69.0846C1.26761 67.3945 1.97183 65.7748 2.95775 64.2959C3.45071 63.5212 4.15493 63.31 4.71831 63.7325C5.28169 64.155 5.42254 64.7888 4.92958 65.4931C3.02817 68.5212 2.1831 71.8311 2.32394 75.3522C2.32394 76.2677 2.32394 77.2536 2.32394 78.1691C2.32394 78.8029 2.25352 79.4367 1.5493 79.7184C0.845071 80.0001 0.352113 79.5776 0 79.0846C0 76.972 0 74.7888 0 72.6762Z" fill="white"/>
<path id="Vector_2" d="M79.9993 59.9296C79.9993 71.7606 69.7176 80.986 57.957 79.7888C47.8162 78.7324 40.0697 70.2113 39.9992 60C39.9992 59.0845 40.0697 58.169 40.2105 57.2535C40.2105 56.9014 40.3514 56.6197 39.9288 56.5493C39.4359 56.3381 39.5063 56.831 39.4359 57.0423C36.619 63.9437 33.8725 70.9155 31.126 77.8169C30.9852 78.169 30.8443 78.5212 30.7035 78.8028C30.4922 79.3662 30.1401 79.8592 29.5063 79.8592C28.8021 79.8592 28.5204 79.4367 28.3091 78.8028C26.9711 75.4226 25.633 72.0423 24.2246 68.662C22.6753 64.7888 21.126 60.9155 19.5767 57.0423C19.3654 56.4789 19.1542 56.4085 18.6612 56.6902C16.7598 57.5352 14.788 58.3099 12.8161 59.0845C11.2668 59.7183 9.85839 60.5634 8.52036 61.6197C8.44993 61.6902 8.30909 61.7606 8.23867 61.831C7.60486 62.2536 6.90064 62.2535 6.4781 61.6902C6.05557 61.1972 6.19641 60.493 6.75979 60C8.30909 58.662 9.99923 57.6761 11.9006 56.9014C14.6471 55.7747 17.464 54.6479 20.2105 53.5211C20.7035 53.3099 20.8443 53.0986 20.8443 52.5352C20.7739 51.4085 20.8443 50.2113 20.8443 49.0845C20.8443 48.662 20.7035 48.4507 20.4218 48.169C16.5485 44.8592 14.5063 40.7042 14.4359 35.6338C14.4359 35.1409 14.3654 34.9296 13.7316 34.7887C10.3513 34.0845 8.52036 30.8451 9.71754 27.5352C9.85839 27.2535 9.85839 26.9718 9.85839 26.6197C9.85839 25.2113 9.85839 23.7324 9.85839 22.324C9.85839 21.9014 9.78796 21.6901 9.43585 21.4085C8.6612 20.8451 8.30909 20.0704 8.30909 19.1549C8.30909 18.7324 8.30909 18.2394 8.30909 17.8169C8.30909 16.6901 8.80205 15.8451 9.78796 15.3521C10.2105 15.1409 10.3513 14.9296 10.3513 14.4366C10.4218 13.2394 10.4218 12.0423 10.633 10.8451C11.1964 7.8169 12.8866 5.56338 15.5626 4.08451C15.9147 3.94366 16.1964 3.7324 16.4781 3.45071C18.6612 1.47887 21.2668 0.704226 24.2246 1.05634C24.7176 1.12676 25.2105 1.05634 25.633 0.845071C28.1683 -0.28169 30.7739 -0.28169 33.3091 0.845071C33.7316 1.05634 34.1542 1.12676 34.6471 1.05634C37.6049 0.704226 40.2809 1.47887 42.464 3.52113C42.7457 3.7324 43.0274 3.87324 43.3091 4.08451C46.2669 5.70423 47.957 8.23944 48.3091 11.6197C48.3795 12.5352 48.45 13.4507 48.45 14.3662C48.45 14.7183 48.5204 14.9296 48.9429 15.0704C50.4218 15.493 51.0556 16.4085 51.0556 17.9578C51.0556 18.3803 51.0556 18.7324 51.0556 19.1549C51.0556 20.2817 50.4922 21.1972 49.5063 21.6901C49.0838 21.9014 48.9429 22.1127 48.9429 22.6056C48.9429 24.0141 48.9429 25.3521 48.9429 26.7606C48.9429 27.1127 49.0133 27.3944 49.0838 27.7465C50.1401 30.9155 48.3091 34.0845 45.0697 34.7887C44.5063 34.9296 44.3654 35.1409 44.295 35.7042C44.2246 40.6338 42.2528 44.7887 38.5204 48.0282C38.2387 48.3099 38.0978 48.5916 38.0978 48.9437C38.0978 50.2113 38.0978 51.4789 38.0978 52.6761C38.0978 53.0986 38.2387 53.3099 38.6612 53.4507C39.1542 53.5916 39.5767 53.8028 39.9992 54.0141C40.5626 54.3662 40.7739 54.155 40.9852 53.5916C43.0978 47.4648 47.2528 43.3099 53.3091 41.0564C57.1824 39.6479 61.1964 39.5071 65.2105 40.6338C66.126 40.8451 66.4781 41.4085 66.3373 42.1127C66.1964 42.8169 65.5626 43.0986 64.5767 42.8873C64.5063 42.8873 64.3655 42.8169 64.295 42.8169C60.2809 41.831 56.4077 42.1831 52.6049 43.8733C45.5626 47.1127 41.4781 54.4366 42.464 62.1831C43.3795 69.7183 49.295 75.9155 56.9007 77.2536C68.0979 79.2254 78.3091 70.2113 77.6049 58.8028C77.2528 53.0282 74.5767 48.4507 69.788 45.1409C68.7317 44.4366 68.45 43.8028 68.9429 43.169C69.4359 42.5352 69.9993 42.5352 71.0556 43.169C76.6894 46.9719 79.9993 53.0986 79.9993 59.9296ZM42.0415 25.3521C41.9007 25.4225 41.8302 25.4225 41.8302 25.493C36.6894 29.7183 29.9992 28.3803 26.9711 22.4648C26.7598 22.1127 26.5485 21.9718 26.1964 22.0423C23.2387 22.0423 20.2809 22.0423 17.3936 22.0423C16.9006 22.0423 16.7598 22.1831 16.7598 22.6761C16.7598 27.0423 16.7598 31.4085 16.7598 35.7042C16.8302 40.2113 18.6612 43.8733 22.1823 46.6197C24.788 48.662 27.6753 49.7888 31.0556 49.155C36.8302 48.0986 41.7598 42.5352 42.0415 36.6197C42.1823 32.9578 42.1119 29.2958 42.1119 25.7042C42.1119 25.6338 42.0415 25.5634 42.0415 25.3521ZM18.5204 19.7183C20.4922 19.7183 22.3936 19.7183 24.3654 19.7183C26.0556 19.7183 26.0556 19.7183 26.126 18.0282C26.126 17.5352 25.9852 17.324 25.4922 17.3944C23.8725 17.3944 22.2528 17.3944 20.633 17.3944C19.7175 17.3944 19.1542 16.9718 19.1542 16.2676C19.1542 15.493 19.6471 15.0704 20.633 15.0704C22.3936 15.0704 24.1542 15.0704 25.8443 15.0704C26.4781 15.0704 26.7598 14.9296 27.1119 14.3662C28.8725 11.0563 31.619 9.29578 35.3514 9.22536C39.0133 9.15493 41.9007 10.8451 43.6612 14.0845C44.1542 14.9296 44.6471 15.2817 45.5626 15.1409C45.9852 15.0704 46.1964 15 46.126 14.5775C46.0556 13.7324 46.0556 12.8873 45.9852 11.9718C45.7035 9.29578 44.3654 7.39437 41.9711 6.19719C41.619 5.98592 41.2669 5.84507 40.9852 5.56338C39.2246 3.87324 37.1119 3.23944 34.6471 3.59155C33.8725 3.7324 33.1683 3.66197 32.464 3.30986C30.4218 2.32394 28.3091 2.32394 26.2668 3.30986C25.4922 3.66197 24.788 3.7324 24.0133 3.59155C21.619 3.23944 19.5063 3.87324 17.7457 5.56338C17.464 5.84507 17.1119 6.05634 16.6894 6.26761C14.788 7.1831 13.5204 8.66198 12.957 10.7042C12.6049 11.9718 12.6753 13.3099 12.5344 14.6479C12.5344 15 12.6753 15.0704 12.957 15.0704C13.5908 15.0704 14.2246 15.0704 14.9288 15.0704C15.8443 15.0704 16.3373 15.5634 16.3373 16.2676C16.3373 16.9718 15.8443 17.3944 14.9288 17.3944C13.7316 17.3944 12.6049 17.3944 11.4077 17.3944C10.4922 17.3944 10.4922 17.4648 10.4922 18.5211C10.4922 19.6479 10.4922 19.6479 11.4781 19.6479C13.8725 19.7183 16.1964 19.7183 18.5204 19.7183ZM21.6894 55.6338C21.619 55.6338 21.619 55.7043 21.5485 55.7043C24.1542 62.2535 26.7598 68.8028 29.4359 75.3521C30.1401 74.155 37.2528 56.1972 37.2528 55.6338C37.1823 55.6338 37.1823 55.7043 37.1119 55.7043C35.7035 56.9014 34.3654 58.0986 32.957 59.2254C30.7035 61.1972 28.1683 61.1972 25.9147 59.2254C24.5063 58.0986 23.0978 56.9014 21.6894 55.6338ZM42.5345 18.5916C42.5345 14.6479 39.3654 11.4789 35.4922 11.4789C31.619 11.4789 28.4499 14.6479 28.4499 18.4507C28.3795 22.3944 31.5485 25.5634 35.4922 25.6338C39.295 25.6338 42.5345 22.4648 42.5345 18.5916ZM23.0978 50.0704C23.0978 51.1972 23.0978 52.1831 23.0978 53.169C23.0978 53.5916 23.2387 53.8028 23.5204 54.0845C24.8584 55.2817 26.1964 56.4789 27.6049 57.6057C28.8021 58.662 30.0697 58.662 31.2668 57.6057C32.0415 56.9719 32.7457 56.1268 33.6612 55.5634C35.633 54.3662 36.1964 52.6761 35.9147 50.493C35.8443 49.8592 35.7035 49.8592 35.2105 50.0704C32.5345 51.4085 29.7176 51.831 26.6894 51.1972C25.4922 51.1268 24.3654 50.6338 23.0978 50.0704ZM44.4359 29.5071C44.4359 30.3521 44.4359 31.1972 44.4359 32.1127C44.4359 32.4648 44.5063 32.6056 44.8584 32.5352C46.0556 32.2535 47.1119 30.9155 47.1119 29.5775C47.1119 28.2394 46.126 26.9014 44.9288 26.6197C44.5767 26.5493 44.3654 26.6197 44.3654 27.0423C44.4359 27.8169 44.4359 28.662 44.4359 29.5071ZM14.3654 29.5775C14.3654 28.8028 14.3654 27.9578 14.3654 27.1831C14.3654 26.6197 14.1542 26.5493 13.6612 26.6902C12.464 27.1127 11.619 28.3099 11.619 29.6479C11.619 30.9859 12.5344 32.1127 13.8021 32.4648C14.2246 32.6056 14.3654 32.5352 14.3654 32.0423C14.3654 31.1972 14.3654 30.3521 14.3654 29.5775ZM46.6894 19.7183C46.9007 19.7183 47.0415 19.7183 47.2528 19.7183C48.8725 19.7183 48.8725 19.7183 48.8021 18.0986C48.8021 17.6056 48.5908 17.3944 48.0978 17.3944C47.1824 17.3944 46.2669 17.3944 45.3514 17.3944C44.9288 17.3944 44.8584 17.5352 44.8584 17.9578C44.8584 19.7183 44.8584 19.7183 46.619 19.7183C46.6894 19.7183 46.6894 19.7183 46.6894 19.7183ZM46.6894 23.4507C46.6894 22.0423 46.6894 22.0423 45.2809 22.0423C45.0697 22.0423 44.9288 22.0423 44.7176 22.0423C44.5063 22.0423 44.4359 22.1127 44.4359 22.324C44.4359 22.8873 44.3654 23.4507 44.5063 24.0141C44.5767 24.3662 45.1401 24.2254 45.4922 24.2958C46.6894 24.6479 46.6894 24.6479 46.6894 23.4507ZM12.1823 24.7183C12.6049 24.5775 12.8161 24.5071 13.0978 24.3662C14.4359 23.9437 14.4359 23.9437 14.3654 22.5352C14.3654 22.4648 14.3654 22.4648 14.3654 22.3944C14.3654 22.1831 14.295 22.0423 14.0133 22.0423C13.5204 22.0423 12.957 22.0423 12.464 22.0423C12.1823 22.0423 12.1823 22.2535 12.1823 22.4648C12.1823 23.169 12.1823 23.8732 12.1823 24.7183Z" fill="white"/>
<path id="Vector_3" d="M73.9437 55.7747C73.9437 58.0282 73.5212 59.5071 72.6057 60.8451C71.6197 62.2535 70.5634 63.7324 69.5071 65.0704C69.0141 65.7042 68.8028 66.338 68.8028 67.0423C68.662 68.3803 68.5916 69.7183 68.3803 71.0564C68.169 72.6761 66.9014 73.7324 65.3521 73.8028C63.8733 73.8733 62.5352 72.8169 62.1831 71.2676C61.831 69.7183 61.5493 68.0986 61.2676 66.5493C61.1268 65.9155 60.9155 65.2817 60.1409 65.2817C59.4366 65.2817 59.155 65.8451 59.0845 66.4789C58.8028 68.0282 58.5211 69.5775 58.169 71.1268C57.8169 72.7465 56.4789 73.8028 54.9296 73.7324C53.3099 73.662 52.1127 72.4648 51.9014 70.7747C51.7606 69.2958 51.5493 67.8169 51.4085 66.338C51.338 65.9155 51.1972 65.6338 50.9859 65.2817C49.9296 63.8028 48.8028 62.324 47.7465 60.8451C44.3662 55.9155 46.9718 49.4366 52.8169 48.169C54.9296 47.7465 56.9718 48.0986 58.8028 49.2958C59.7183 49.9296 60.4226 49.9296 61.338 49.2958C64.0141 47.6056 66.831 47.5352 69.6479 49.0141C72.5352 50.7747 73.8733 53.2394 73.9437 55.7747ZM71.6197 56.338C71.5493 54.0845 70.5634 52.3944 68.5916 51.2676C66.5493 50.1409 64.5071 50.2113 62.6057 51.4789C60.9155 52.6056 59.3662 52.6056 57.6761 51.4789C56.6197 50.7747 55.4226 50.4225 54.1549 50.5634C49.5071 50.9859 47.1831 55.9859 49.8592 59.7887C50.9859 61.338 52.1127 62.8873 53.2395 64.4366C53.5211 64.8592 53.7324 65.2113 53.7324 65.7042C53.8733 67.2535 54.0845 68.8028 54.2254 70.3521C54.2958 70.9155 54.4366 71.4085 55.0704 71.4789C55.7042 71.4789 55.8451 70.9859 55.9155 70.493C56.1972 68.8733 56.4789 67.324 56.831 65.7747C57.1831 64.0845 58.5211 63.0282 60.1409 63.0282C61.7606 63.0282 63.0986 64.1549 63.4507 65.8451C63.7324 67.3944 64.0845 68.9437 64.3662 70.493C64.4366 71.0564 64.6479 71.5493 65.2817 71.5493C65.9155 71.4789 66.0564 70.9859 66.0564 70.493C66.1972 69.2958 66.3381 68.0986 66.4085 66.9014C66.4789 65.7042 66.7606 64.7183 67.5352 63.7324C68.5916 62.4648 69.4366 61.1268 70.4226 59.8592C71.1972 58.8028 71.6197 57.6761 71.6197 56.338Z" fill="white"/>
<path id="Vector_4" d="M14.0146 69.7188C15.5639 69.7188 17.1132 69.7188 18.5921 69.7188C20.0005 69.7188 20.7751 70.4934 20.7751 71.9019C20.7751 72.9582 20.7751 74.0146 20.7751 75.0709C20.7751 76.4089 20.0005 77.254 18.6625 77.254C15.4935 77.254 12.3949 77.254 9.22585 77.254C7.95824 77.254 7.18359 76.4794 7.18359 75.2118C7.18359 74.085 7.18359 72.8878 7.18359 71.7611C7.18359 70.4934 7.95824 69.7188 9.22585 69.7188C10.8456 69.6484 12.3949 69.7188 14.0146 69.7188ZM14.0146 74.9301C15.2822 74.9301 16.6202 74.9301 17.8878 74.9301C18.3104 74.9301 18.4512 74.8596 18.4512 74.4371C18.4512 73.8737 18.3808 73.3104 18.4512 72.747C18.5216 72.254 18.3104 72.1132 17.8174 72.1132C15.7751 72.1132 13.7329 72.1132 11.7611 72.1132C9.43712 72.1132 9.43712 72.1132 9.50754 74.4371C9.50754 74.8596 9.64838 75.0005 10.0709 75.0005C11.3385 74.8596 12.6766 74.9301 14.0146 74.9301Z" fill="white"/>
<path id="Vector_5" d="M40.212 18.521C40.212 21.1267 38.0993 23.2394 35.4937 23.2394C32.8881 23.2394 30.7754 21.1267 30.7754 18.521C30.7754 15.9154 32.8881 13.8027 35.4937 13.8027C38.0993 13.8027 40.212 15.9154 40.212 18.521ZM37.8176 18.521C37.8176 17.183 36.6909 16.1267 35.4233 16.1267C34.1557 16.1267 33.0993 17.183 33.0993 18.4506C33.0993 19.7887 34.1557 20.845 35.4233 20.845C36.7613 20.9154 37.8176 19.8591 37.8176 18.521Z" fill="white"/>
<path id="Vector_6" d="M60.0716 57.8174C58.9448 57.8174 57.818 57.5357 56.7617 56.9019C56.1279 56.4794 55.8462 55.8456 56.1983 55.2822C56.48 54.7188 57.1842 54.5075 57.8885 54.8596C59.4377 55.6343 60.987 55.6343 62.5363 54.8596C63.2406 54.5075 63.8744 54.7188 64.2265 55.2822C64.5082 55.916 64.2969 56.4794 63.5927 56.9019C62.6772 57.4653 61.3392 57.8174 60.0716 57.8174Z" fill="white"/>
</g>
</g>
<defs>
<clipPath id="clip0_365_638">
<rect width="80" height="80" fill="white"/>
</clipPath>
</defs>
</svg>
