<svg width="48" height="80" viewBox="0 0 48 80" fill="none" xmlns="http://www.w3.org/2000/svg">
<path d="M24 0C10.7452 0 0 10.7452 0 24C0 36.3535 9.33347 46.527 21.3333 47.8535V80H26.6667V47.8535C38.6665 46.527 48 36.3535 48 24C48 10.7452 37.2548 0 24 0Z" fill="#6A90BA"/>
<path d="M8.66189 24.7906C8.94885 24.9656 9.2498 25.1406 9.55075 25.3015C9.8517 25.4695 10.1527 25.6235 10.4606 25.7775C11.0695 26.0854 11.6854 26.3724 12.3153 26.6313C13.5611 27.1702 14.8419 27.6182 16.1367 27.9891C17.4315 28.36 18.7473 28.64 20.0701 28.843L21.0639 28.9689C21.3928 29.0109 21.7288 29.0249 22.0647 29.0599C22.4007 29.0949 22.7296 29.0949 23.0656 29.1089L23.5695 29.1299C23.7375 29.1299 23.9054 29.1299 24.0734 29.1299L24.5773 29.1229C24.7453 29.1229 24.9133 29.1229 25.0813 29.1089L26.0821 29.0529C26.418 29.0249 26.747 28.9829 27.0829 28.955C27.2509 28.934 27.4189 28.927 27.5798 28.899L28.0768 28.822L28.5737 28.745C28.7417 28.717 28.9026 28.696 29.0706 28.661L30.0574 28.458C30.1414 28.437 30.2254 28.423 30.3024 28.409L30.5474 28.3461L31.0373 28.2201C31.3592 28.1291 31.6952 28.0591 32.0101 27.9541C34.5997 27.1842 37.0913 26.0574 39.4989 24.7346C39.5619 24.6996 39.6459 24.7206 39.6809 24.7836C39.7159 24.8396 39.6949 24.9166 39.6459 24.9516C37.4693 26.6663 34.9987 28.0451 32.3671 29.0319L32.1221 29.1299C32.0381 29.1649 31.9541 29.1859 31.8702 29.2139L31.3662 29.3749L30.8623 29.5359L30.6104 29.6128C30.5264 29.6408 30.4424 29.6548 30.3514 29.6758L29.3226 29.9348C29.1546 29.9838 28.9796 30.0118 28.8046 30.0468L28.2867 30.1448L27.7688 30.2427C27.5938 30.2777 27.4189 30.2917 27.2439 30.3197C26.894 30.3617 26.544 30.4107 26.1941 30.4457L25.1372 30.5227C24.9623 30.5367 24.7873 30.5437 24.6053 30.5437L24.0734 30.5507C23.8984 30.5507 23.7165 30.5577 23.5415 30.5577L23.0096 30.5367C22.6596 30.5227 22.3027 30.5157 21.9528 30.4737C21.6028 30.4387 21.2459 30.4177 20.8959 30.3687L19.8461 30.2148C18.4533 29.9768 17.0815 29.6198 15.7588 29.1509C14.429 28.682 13.1482 28.1081 11.9234 27.4152C10.7056 26.7223 9.53675 25.9524 8.50092 25.0076C8.44493 24.9586 8.44493 24.8746 8.49392 24.8186C8.53591 24.7626 8.6059 24.7556 8.66189 24.7906Z" fill="white"/>
<path d="M7.7521 25.6867C7.66112 25.5468 7.59813 25.4068 7.55613 25.2528C7.51414 25.0988 7.48614 24.9309 7.50714 24.7489C7.52114 24.5669 7.60513 24.3639 7.7661 24.224C7.84309 24.154 7.93407 24.105 8.02506 24.07C8.11604 24.042 8.20703 24.014 8.29101 24.007C8.33301 24 8.375 24 8.41699 24C8.45899 24 8.50098 24 8.54297 24C8.61996 24 8.70395 24.007 8.78094 24.021C8.93491 24.042 9.08889 24.077 9.24286 24.119C9.54381 24.217 9.81677 24.3429 10.0687 24.5389C10.1247 24.5809 10.1317 24.6649 10.0897 24.7139C10.0547 24.7629 9.99174 24.7769 9.94275 24.7489L9.92875 24.7419C9.68379 24.6369 9.41083 24.5529 9.13788 24.5039C9.0049 24.4759 8.86492 24.4619 8.73194 24.4549C8.59896 24.4479 8.45899 24.4479 8.347 24.4619C8.29101 24.4689 8.23502 24.4829 8.19303 24.4969C8.15104 24.5179 8.10904 24.5389 8.08105 24.5669C8.01806 24.6229 7.97607 24.6999 7.95507 24.8049C7.90608 25.0218 7.94107 25.3088 7.98306 25.5747V25.5887C7.99006 25.6587 7.94807 25.7217 7.87808 25.7357C7.82909 25.7497 7.7801 25.7287 7.7521 25.6867Z" fill="white"/>
<path d="M40.024 25.5886C40.066 25.3226 40.101 25.0357 40.052 24.8187C40.031 24.7067 39.989 24.6298 39.926 24.5808C39.898 24.5528 39.8561 24.5318 39.8141 24.5108C39.7651 24.4968 39.7161 24.4758 39.6601 24.4758C39.5481 24.4618 39.4081 24.4618 39.2751 24.4688C39.1422 24.4758 39.0022 24.4898 38.8692 24.5178C38.6033 24.5668 38.3303 24.6508 38.0783 24.7557L38.0643 24.7627C38.0014 24.7907 37.9244 24.7627 37.8964 24.6997C37.8754 24.6438 37.8894 24.5878 37.9314 24.5528C38.1833 24.3568 38.4633 24.2238 38.7572 24.1328C38.9042 24.0908 39.0582 24.0558 39.2192 24.0348C39.2961 24.0278 39.3731 24.0209 39.4571 24.0139C39.4991 24.0139 39.5341 24.0069 39.5831 24.0139C39.6251 24.0139 39.6671 24.0139 39.7091 24.0209C39.7931 24.0279 39.884 24.0488 39.975 24.0838C40.066 24.1188 40.157 24.1678 40.234 24.2378C40.395 24.3848 40.4789 24.5878 40.4929 24.7627C40.5139 24.9447 40.486 25.1127 40.444 25.2667C40.402 25.4206 40.339 25.5606 40.248 25.7006C40.213 25.7636 40.129 25.7776 40.073 25.7426C40.031 25.7146 40.01 25.6656 40.017 25.6166L40.024 25.5886Z" fill="white"/>
</svg>
